<svg width="127" height="49" viewBox="0 0 127 49" fill="none" xmlns="http://www.w3.org/2000/svg">
<path d="M9.20898 22.957H10.5531V25.8173L12.8074 22.957H14.4156L11.6802 26.1993L14.4156 29.5525H12.8074L10.5531 26.6638V29.5525H9.20898V22.957Z" fill="#1D1D1B"/>
<path d="M23.532 22.9569H25.2769C25.7297 22.9569 27.7977 22.9569 27.7977 24.6948C27.8003 24.9586 27.7267 25.2175 27.5857 25.4404C27.4448 25.6634 27.2424 25.8409 27.003 25.9516C27.3574 26.0412 27.6717 26.2468 27.8956 26.5357C28.1195 26.8246 28.2403 27.1802 28.2387 27.5457C28.2387 28.4889 27.6704 29.5524 25.3453 29.5524H23.532V22.9569ZM25.5033 25.4965C26.3852 25.4965 26.4465 24.9872 26.4465 24.8198C26.4465 24.176 25.791 24.1407 25.5033 24.1407H24.8761V25.4965H25.5033ZM25.7391 28.3663C25.8948 28.3663 26.8851 28.3663 26.8851 27.5363C26.8851 27.2863 26.7885 26.6826 25.7391 26.6826H24.8666V28.3663H25.7391Z" fill="#1D1D1B"/>
<path d="M39.8852 22.9569H40.9628L43.9835 29.5595H42.5026L41.7575 27.857H39.0905L38.3454 29.5595H36.8645L39.8852 22.9569ZM41.2481 26.6638L40.4228 24.7396L39.5998 26.6638H41.2481Z" fill="#1D1D1B"/>
<path d="M52.9648 22.957H54.9951C57.3178 22.957 57.589 24.3907 57.589 25.0156C57.589 25.8432 57.0985 27.0553 54.9951 27.0553H54.3089V29.5525H52.9648V22.957ZM54.3089 25.8715H55.1036C55.4549 25.8715 56.2496 25.8173 56.2496 25.0061C56.2496 24.1949 55.4549 24.1407 55.1036 24.1407H54.3089V25.8715Z" fill="#1D1D1B"/>
<path d="M67.4257 24.1407H66.084V22.9616H70.1139V24.1407H68.7698V29.5642H67.4257V24.1407Z" fill="#1D1D1B"/>
<path d="M81.0634 22.957H82.1434L85.1617 29.5595H83.6808L82.9357 27.857H80.2758L79.5307 29.5595H78.0498L81.0634 22.957ZM82.4264 26.6638L81.6034 24.7397L80.7804 26.6638H82.4264Z" fill="#1D1D1B"/>
<path d="M100.472 29.5527H98.9911L97.0222 24.6503L95.0414 29.5527H93.5605L96.4327 22.9502H97.6117L100.472 29.5527Z" fill="#1D1D1B"/>
<path d="M110.795 22.9572V25.4968H111.878C113.672 25.4968 114.28 26.5391 114.28 27.5295C114.28 28.7321 113.29 29.5527 111.878 29.5527H109.451V22.9501L110.795 22.9572ZM110.795 28.3666H111.878C112.495 28.3666 112.927 28.0553 112.927 27.5295C112.927 27.0036 112.502 26.6924 111.878 26.6924H110.788L110.795 28.3666ZM115.011 22.9572H116.358V29.5598H115.014L115.011 22.9572Z" fill="#1D1D1B"/>
<path d="M40.046 19.2889H47.8464L54.166 5.55557V3.37201H28.541V10.7716H44.1702L40.046 19.2889Z" fill="#93DACF"/>
<path d="M8.67057 13.0755V19.2889H16.1244V3.37207H13.6414L0 8.2839L1.76618 15.4996L8.67057 13.0755Z" fill="#93DACF"/>
<path d="M81.6301 19.2889H89.4305L95.7478 5.55563V3.37207H70.1228V10.7716H85.752L81.6301 19.2889Z" fill="#93DACF"/>
<path d="M112.882 19.2889H120.683L127 5.55557V3.37201H101.375V10.7716H117.004L112.882 19.2889Z" fill="#93DACF"/>
<path d="M75.4575 33.4746L70.9559 43.3926H79.0747L83.4465 33.4746H75.4575Z" fill="#93DACF"/>
<path d="M106.705 33.4745L102.206 43.3925H110.322L114.694 33.4745H106.705Z" fill="#93DACF"/>
<path d="M33.8654 33.4745L29.3662 43.3925H37.485L41.8568 33.4745H33.8654Z" fill="#93DACF"/>
<path d="M16.1243 33.4746H8.66809V43.3926H16.1243V33.4746Z" fill="#93DACF"/>
<path d="M45.6826 48.611H46.3028L51.8041 35.6039H51.184L45.6826 48.611Z" fill="#93DACF"/>
<path d="M64.5008 -6.10352e-05L57.6035 16.3059H58.2237L65.1234 -6.10352e-05H64.5008Z" fill="#93DACF"/>
</svg>
