<svg width="136" height="26" viewBox="0 0 136 26" fill="none" xmlns="http://www.w3.org/2000/svg">
<path fill-rule="evenodd" clip-rule="evenodd" d="M35.9806 22.0273H34.7213V25.9044H33V21.0555H35.9806V22.0273ZM36.7258 21.0555H38.4583C38.8204 21.0453 39.1827 21.0734 39.5364 21.1392C39.7463 21.1735 39.9411 21.2545 40.1002 21.3736C40.2268 21.474 40.3175 21.6016 40.3622 21.7423C40.4149 21.9629 40.4387 22.1876 40.433 22.4125V22.8318C40.4518 23.0633 40.4072 23.2953 40.3026 23.5104C40.1948 23.6645 40.023 23.7806 39.8195 23.8367C39.5285 23.9219 39.2212 23.9618 38.9129 23.9545H38.4497V25.9054H36.7258V21.0565V21.0555ZM38.4484 21.8817V23.1128H38.5726C38.632 23.1192 38.6925 23.115 38.7498 23.1006C38.8072 23.0862 38.8603 23.0618 38.9055 23.0291C38.9804 22.9228 39.0122 22.7994 38.9961 22.677V22.2752C38.9961 22.1079 38.9663 21.9984 38.8955 21.9489C38.7573 21.8947 38.6045 21.8716 38.4522 21.8817H38.4484ZM44.6109 21.0555L44.1477 24.2632C44.1097 24.623 44.032 24.9791 43.9155 25.327C43.8765 25.4257 43.8117 25.5159 43.7258 25.5913C43.6399 25.6666 43.535 25.7252 43.4187 25.7628C43.0334 25.8717 42.6264 25.9173 42.2202 25.8971H41.213V25.2681H41.3135C41.453 25.2771 41.5933 25.2627 41.7259 25.2258C41.7519 25.2129 41.7731 25.1943 41.7873 25.1721C41.8015 25.1499 41.8082 25.1249 41.8066 25.0998C41.8066 25.0998 41.7768 24.9573 41.7061 24.6867L40.8093 21.0359H42.2997L42.8436 24.0505L43.1057 21.0359H44.6059L44.6109 21.0555ZM49.1924 25.9044H47.4699V22.0273H46.9557V25.9044H45.2331V21.0555H49.1912V25.9044H49.1924ZM54.1069 25.9044H52.3843V22.0273H51.8776V25.9044H50.155V21.0555H54.1031V25.9044H54.1069ZM58.0451 21.0555L59.0324 25.9044H57.2701L57.1894 25.0337H56.5746L56.474 25.9044H54.7018L55.5774 21.0555H58.0451ZM57.1384 24.1703C57.0478 23.6178 56.967 22.9392 56.8764 22.1357C56.705 23.0652 56.5945 23.7438 56.5547 24.1703H57.1384ZM63.0898 21.0555H64.8124L64.8224 23.0994C65.144 23.0911 65.3192 22.9651 65.3254 22.7058L65.3552 21.7599C65.3398 21.6334 65.356 21.5056 65.4028 21.3846C65.4496 21.2635 65.526 21.1518 65.6272 21.0565H67.2181C67.0315 21.2655 66.9487 21.5263 66.987 21.7846L66.997 22.6108C67.0069 23.1138 66.6145 23.3978 65.8395 23.4732C66.6145 23.5404 67.0082 23.8336 66.997 24.3438L66.987 25.1143C66.9542 25.3908 67.0357 25.6684 67.2181 25.9012H65.6272C65.5235 25.8072 65.4455 25.6957 65.3985 25.5743C65.3516 25.4529 65.3368 25.3245 65.3552 25.1979V24.2519C65.357 24.1968 65.3444 24.1421 65.3183 24.0914C65.2921 24.0408 65.253 23.9954 65.2036 23.9586C65.0972 23.8836 64.9605 23.8449 64.8211 23.8502L64.8112 25.9023H63.0886V21.0534L63.0898 21.0555ZM71.7711 23.8946C71.7773 24.2393 71.7603 24.5841 71.7201 24.9273C71.6871 25.1306 71.586 25.3221 71.4283 25.4799C71.2519 25.6551 71.0225 25.788 70.7638 25.8651C70.4511 25.9605 70.1195 26.0061 69.7864 25.9993C69.4613 26.0031 69.1379 25.9604 68.8301 25.8733C68.5662 25.8003 68.3325 25.6668 68.1558 25.4881C67.9914 25.333 67.8863 25.1406 67.8539 24.9356C67.8138 24.5875 67.7969 24.238 67.8031 23.8884V23.0673C67.7974 22.7205 67.8143 22.3736 67.8539 22.0283C67.887 21.8251 67.9882 21.6336 68.1458 21.4758C68.3223 21.3007 68.5516 21.1677 68.8102 21.0906C69.123 20.9952 69.4546 20.9496 69.7876 20.9564C70.1127 20.9527 70.4362 20.9953 70.744 21.0824C71.0079 21.1554 71.2416 21.2889 71.4183 21.4676C71.5827 21.6227 71.6878 21.8151 71.7201 22.0201C71.7603 22.3681 71.7773 22.7178 71.7711 23.0673V23.8935V23.8946ZM70.0584 22.3031C70.0679 22.1566 70.0512 22.0096 70.0088 21.8672C69.9893 21.8356 69.9586 21.8098 69.9207 21.7933C69.8829 21.7769 69.8399 21.7706 69.7976 21.7753C69.7591 21.7727 69.7205 21.7783 69.6853 21.7915C69.6501 21.8047 69.6195 21.825 69.5964 21.8507C69.5285 21.9944 69.5042 22.1498 69.5256 22.3031V24.5638C69.5145 24.737 69.5317 24.9107 69.5765 25.0802C69.6063 25.1473 69.6771 25.1835 69.7976 25.1835C69.8451 25.1883 69.8932 25.1791 69.9336 25.1576C69.9739 25.1362 70.004 25.1037 70.0187 25.0657C70.0624 24.8867 70.0794 24.7039 70.0695 24.5214V22.3041L70.0584 22.3031ZM77.9945 21.0555V25.9044H76.4942V22.6304L75.8906 25.9044H74.8225L74.1879 22.7027V25.9044H72.6876V21.0555H74.9132L75.1243 22.0883L75.3565 23.3193L75.749 21.0586L77.9945 21.0555ZM82.9287 25.9044H81.2061V22.0273H80.6907V25.9044H78.9681V21.0555H82.9163V25.9044H82.9287ZM86.8657 21.0555L87.853 25.9044H86.0907L86.0099 25.0337H85.3952L85.2946 25.9044H83.5223L84.3979 21.0555H86.8657ZM85.9491 24.1703C85.8584 23.6178 85.7777 22.9392 85.687 22.1357C85.5156 23.0652 85.4051 23.7438 85.3654 24.1703H85.9491ZM92.3737 21.0555V25.9044H90.6635V23.8698H90.1494V25.9044H88.428V21.0555H90.1506V22.7895H90.6647V21.0565L92.3737 21.0555ZM97.1775 25.9044H95.7369V23.7014L94.8489 25.9054H93.3486V21.0565H94.7781V23.2419L95.7443 21.0565H97.185V25.9054L97.1775 25.9044ZM101.991 25.9044H100.551V23.7014L99.654 25.9044H98.1537V21.0555H99.5931V23.2408L100.559 21.0555H102V25.9044H101.991ZM100.521 20H101.216C101.212 20.2435 101.097 20.4765 100.895 20.6527C100.66 20.815 100.364 20.9038 100.059 20.9038C99.7535 20.9038 99.4578 20.815 99.223 20.6527C99.0204 20.4767 98.9051 20.2436 98.9001 20H99.5943C99.6241 20.2768 99.7756 20.4131 100.058 20.4131C100.339 20.4131 100.491 20.2788 100.521 20Z" fill="url(#paint0_linear_1_41)"/>
<path fill-rule="evenodd" clip-rule="evenodd" d="M5.31914 9.25958H4.17673V15.3136H0V0.884744H4.17673V6.04954H5.31914C5.29872 5.14142 5.36966 4.23348 5.53114 3.33688C5.6451 2.80773 5.93423 2.322 6.36051 1.94352C6.79978 1.56392 7.33937 1.29149 7.92821 1.15197C8.65158 0.98488 9.39644 0.905213 10.1432 0.915068C10.9149 0.899284 11.685 0.985138 12.4292 1.16993C13.0335 1.32174 13.5795 1.62092 14.0068 2.03446C14.4392 2.47293 14.714 3.01899 14.795 3.60076C14.9302 4.68573 14.9844 5.77764 14.9572 6.86915V9.32019C14.9852 10.4147 14.9311 11.5097 14.795 12.5976C14.7187 13.1806 14.4434 13.7278 14.0068 14.1639C13.5732 14.5866 13.0215 14.8969 12.4092 15.0621C11.6706 15.2561 10.9036 15.348 10.1344 15.3349C9.41112 15.3445 8.6898 15.2648 7.99055 15.098C7.41945 14.953 6.89322 14.6914 6.45281 14.3334C6.07352 14.0292 5.79074 13.6398 5.63341 13.205C5.48984 12.7139 5.40622 12.2102 5.384 11.7027C5.34409 11.111 5.32287 10.3093 5.32287 9.31793V9.25396L5.31914 9.25958ZM10.7904 11.7634V4.61687C10.8102 4.19895 10.7763 3.78038 10.6894 3.36947C10.6599 3.2629 10.588 3.16976 10.4873 3.10769C10.3866 3.04562 10.2642 3.01891 10.1432 3.03262C10.0396 3.02767 9.93668 3.05 9.84698 3.09686C9.75728 3.14372 9.68468 3.21309 9.63807 3.29649C9.49974 3.7279 9.4482 4.1781 9.4859 4.62585V12.0272C9.4744 12.3196 9.51654 12.6117 9.61062 12.8918C9.64696 12.9866 9.71754 13.0678 9.81112 13.1224C9.90471 13.1769 10.0159 13.2017 10.1269 13.1927C10.2284 13.1991 10.3298 13.1794 10.4192 13.1359C10.5087 13.0923 10.5825 13.0267 10.632 12.9468C10.776 12.5666 10.8311 12.1637 10.7941 11.7634H10.7904ZM16.3827 15.3136V3.49745H22.6621V5.53643H20.3661V15.3147L16.3827 15.3136ZM33.2193 7.18352H29.0588V4.67186C29.0878 4.21347 29.0437 3.75372 28.9278 3.30659C28.8735 3.21211 28.7879 3.13511 28.6829 3.08624C28.578 3.03737 28.4587 3.01904 28.3417 3.03375C28.2074 3.01663 28.0706 3.03938 27.952 3.09854C27.8334 3.1577 27.7395 3.25004 27.6844 3.36159C27.5612 3.82943 27.5134 4.3108 27.5422 4.7909V11.4916C27.5147 11.9535 27.5626 12.4165 27.6844 12.8659C27.7348 12.9735 27.8233 13.063 27.936 13.1207C28.0488 13.1784 28.1795 13.2009 28.308 13.1848C28.434 13.1987 28.5616 13.175 28.6713 13.1174C28.781 13.0598 28.8667 12.9715 28.9153 12.8659C29.0409 12.3737 29.0884 11.8679 29.0563 11.3637V9.54476H33.223V10.1005C33.2758 11.1666 33.1565 12.2338 32.8688 13.269C32.5753 13.9609 32.025 14.54 31.3112 14.9083C30.4201 15.3962 29.3903 15.6397 28.3479 15.6089C27.2997 15.6445 26.2589 15.4377 25.3248 15.0082C24.5845 14.6602 24.02 14.0705 23.7471 13.3599C23.448 12.3233 23.3186 11.2528 23.363 10.1825V5.96758C23.3492 5.18602 23.3909 4.40446 23.4877 3.62769C23.5798 3.08127 23.8234 2.5646 24.1961 2.12543C24.6128 1.62137 25.1724 1.22736 25.8162 0.98466C26.6903 0.679045 27.6258 0.541156 28.5626 0.579824C29.4993 0.618493 30.4168 0.83288 31.2563 1.20923C31.9768 1.55766 32.5361 2.12563 32.8339 2.81144C33.1318 3.78009 33.2581 4.78498 33.2081 5.78906V7.18691L33.2193 7.18352ZM42.5131 3.49632V5.9732H40.2271V15.3136H36.2424V5.9732H33.9464V3.49632H42.5131ZM47.377 3.49632L47.3059 4.54389C47.6191 4.15779 48.0189 3.83532 48.4795 3.5974C48.9113 3.38859 49.395 3.28196 49.8851 3.28751C50.461 3.27539 51.0255 3.4331 51.4927 3.73661C51.9029 3.98137 52.2037 4.34883 52.342 4.77404C52.4812 5.43094 52.5389 6.09973 52.5141 6.7681V11.7476C52.5464 12.5171 52.4751 13.2873 52.302 14.0415C52.1677 14.4865 51.8572 14.8719 51.429 15.125C50.9588 15.4035 50.404 15.5436 49.8414 15.5258C49.3621 15.5308 48.8895 15.4241 48.4695 15.2159C48.0164 14.9837 47.6235 14.6672 47.3171 14.2874V17H43.3263V3.49745L47.377 3.49632ZM48.5194 6.92866C48.5447 6.48387 48.5141 6.03794 48.4284 5.5993C48.3673 5.44436 48.2064 5.3624 47.9295 5.3624C47.8248 5.35028 47.7186 5.36956 47.6273 5.41725C47.536 5.46495 47.4647 5.53838 47.4244 5.62623C47.3259 6.05093 47.2886 6.48528 47.3134 6.91856V11.8161C47.2849 12.2653 47.3269 12.7159 47.4381 13.1545C47.4801 13.2434 47.5534 13.3174 47.6467 13.365C47.74 13.4127 47.8482 13.4314 47.9545 13.4183C48.2039 13.4183 48.3685 13.3364 48.4296 13.1724C48.5126 12.7797 48.5431 12.3794 48.5206 11.98V6.92753L48.5194 6.92866ZM62.8692 7.64836V10.544C62.8935 11.3275 62.8325 12.1112 62.6871 12.8839C62.5558 13.3944 62.2964 13.871 61.9288 14.2773C61.5335 14.7102 61.0168 15.04 60.4323 15.2327C59.7578 15.4505 59.0447 15.5556 58.3283 15.5426C57.5693 15.5606 56.8119 15.4715 56.0834 15.2788C55.5337 15.1437 55.0388 14.8688 54.6579 14.4872C54.3056 14.1174 54.056 13.6776 53.9296 13.2039C53.763 12.4611 53.6918 11.7034 53.7176 10.946V7.90548C53.6799 7.03238 53.8133 6.16015 54.1117 5.32872C54.3836 4.70136 54.8869 4.17726 55.5372 3.84438C56.3403 3.44509 57.2494 3.25097 58.1662 3.28299C58.9542 3.26298 59.7386 3.38673 60.4722 3.64677C60.9985 3.82374 61.4718 4.10866 61.8546 4.47896C62.2373 4.84925 62.5189 5.29471 62.6771 5.78005C62.8302 6.39507 62.8947 7.02526 62.8692 7.65511V7.64836ZM58.8783 6.75576C58.9039 6.37044 58.8665 5.98382 58.7673 5.60828C58.7273 5.52979 58.6608 5.46465 58.5773 5.42212C58.4938 5.37959 58.3975 5.36184 58.3021 5.37138C58.2056 5.3629 58.1085 5.38102 58.0236 5.42332C57.9388 5.46562 57.8702 5.53012 57.8269 5.60828C57.7158 5.98203 57.6736 6.3697 57.7022 6.75576V12.0912C57.6774 12.459 57.7196 12.8281 57.8269 13.1837C57.8717 13.2583 57.9375 13.321 58.0176 13.3656C58.0977 13.4101 58.1894 13.435 58.2836 13.4378C58.3777 13.4405 58.471 13.4209 58.5541 13.3811C58.6372 13.3412 58.7073 13.2825 58.7573 13.2106C58.8578 12.885 58.8954 12.5462 58.8683 12.2091V6.75576H58.8783ZM74.0936 15.3136H70.6016V8.92272L67.8204 15.3136H64.18V3.49745H67.6583V9.83443L70.3883 3.49745H74.0799V15.3147L74.0936 15.3136ZM70.2412 0.00897731H71.9198C71.9172 0.721353 71.638 1.41045 71.1304 1.95698C70.874 2.20603 70.5598 2.40124 70.2102 2.52872C69.8606 2.65621 69.4841 2.71286 69.1075 2.69466C68.7297 2.71518 68.3515 2.65868 68.0013 2.52941C67.651 2.40013 67.3377 2.2014 67.0846 1.94801C66.5849 1.39813 66.3102 0.710439 66.3064 0H67.9851C68.0661 0.810647 68.4403 1.22047 69.1075 1.22047C69.7747 1.22047 70.1588 0.828615 70.2399 0.010108L70.2412 0.00897731ZM84.9314 15.3147H81.4531V8.75095L79.2893 15.3147H75.6389V0.884744H79.1172V7.39685L81.4531 0.884744H84.9314V15.3147ZM95.8528 15.3147H91.8781V10.9538H90.4426V15.3147H86.4779V3.49745H90.4426V7.7483H91.8781V3.49632H95.8528V15.3136V15.3147ZM106.542 12.2013C106.6 12.6452 106.552 13.0951 106.402 13.5211C106.251 13.947 106.001 14.3392 105.669 14.6713C104.504 15.2289 103.178 15.4575 101.867 15.3271H97.2858V3.49745H102.009C103.18 3.3873 104.358 3.64126 105.346 4.21714C105.684 4.54693 105.94 4.93785 106.097 5.3638C106.254 5.78975 106.309 6.24094 106.257 6.68727C106.284 6.97637 106.245 7.2675 106.141 7.54224C106.038 7.81698 105.872 8.06935 105.654 8.28331C105.436 8.49727 105.172 8.66819 104.877 8.78522C104.582 8.90225 104.263 8.96284 103.941 8.96315C104.664 9.04485 105.335 9.34672 105.841 9.8187C106.31 10.2759 106.561 10.8808 106.538 11.5029V12.2035L106.542 12.2013ZM101.253 7.88526C101.86 7.88526 102.233 7.81231 102.365 7.67645C102.529 7.43331 102.6 7.14861 102.567 6.86579C102.584 6.7416 102.572 6.61576 102.534 6.49553C102.496 6.37529 102.432 6.26303 102.345 6.16518C102.013 5.99887 101.63 5.93201 101.253 5.97429V7.88303V7.88526ZM102.567 11.6455V11.2446C102.567 10.7349 102.496 10.416 102.345 10.2892C102.013 10.1228 101.63 10.056 101.253 10.0983V12.839C101.623 12.8756 101.995 12.8022 102.314 12.6301C102.523 12.3389 102.612 11.9906 102.564 11.6466L102.567 11.6455ZM116.755 9.61548H111.577V12.1732C111.547 12.5233 111.592 12.8754 111.708 13.2106C111.757 13.2885 111.83 13.3515 111.919 13.3915C112.008 13.4315 112.108 13.4467 112.207 13.4352C112.331 13.4483 112.457 13.4253 112.567 13.3696C112.676 13.3139 112.763 13.2283 112.814 13.1253C112.942 12.739 112.994 12.3353 112.966 11.9329V10.3756H116.759V11.2491C116.775 11.8138 116.724 12.3784 116.607 12.9333C116.466 13.3922 116.222 13.82 115.888 14.1897C115.517 14.6322 115.022 14.9778 114.453 15.1912C113.761 15.4358 113.022 15.5504 112.279 15.528C111.518 15.54 110.761 15.4289 110.044 15.2002C109.464 15.0238 108.944 14.7142 108.538 14.302C108.186 13.9361 107.93 13.5036 107.789 13.0366C107.629 12.3761 107.561 11.7002 107.587 11.0246V7.57428C107.544 6.74028 107.703 5.90781 108.052 5.13447C108.372 4.53285 108.911 4.04787 109.579 3.76019C110.336 3.43319 111.167 3.27089 112.006 3.28638C112.973 3.25351 113.932 3.45143 114.787 3.8601C115.472 4.19974 116.013 4.73444 116.324 5.38035C116.66 6.23589 116.811 7.14142 116.769 8.04809V9.61435L116.755 9.61548ZM112.751 7.69441V6.82988C112.774 6.4327 112.736 6.03452 112.64 5.64645C112.608 5.56415 112.548 5.49352 112.467 5.44573C112.387 5.39794 112.291 5.37575 112.194 5.38261C111.921 5.38261 111.749 5.45557 111.678 5.60715C111.582 6.01087 111.548 6.42455 111.577 6.83659V7.70116H112.751V7.69441ZM126.888 7.95824H123.117V6.59297C123.142 6.26691 123.097 5.93953 122.986 5.6285C122.946 5.54657 122.879 5.47789 122.794 5.43216C122.709 5.38643 122.61 5.36595 122.511 5.3736C122.417 5.36321 122.322 5.37924 122.239 5.41945C122.155 5.45965 122.088 5.52208 122.046 5.59817C121.937 5.9225 121.895 6.26181 121.921 6.59969V12.1709C121.901 12.4948 121.963 12.8185 122.103 13.1174C122.146 13.2114 122.219 13.2918 122.313 13.3485C122.406 13.4052 122.516 13.4358 122.629 13.4363C122.748 13.4446 122.866 13.4169 122.965 13.3574C123.064 13.298 123.138 13.2103 123.175 13.1084C123.293 12.7015 123.34 12.2809 123.316 11.861V10.4497H126.876C126.883 11.158 126.846 11.8661 126.765 12.5706C126.675 13.0965 126.45 13.5963 126.108 14.0303C125.746 14.5181 125.242 14.9066 124.651 15.153C123.949 15.4228 123.189 15.55 122.426 15.5258C121.497 15.5675 120.573 15.3886 119.746 15.0071C119.104 14.679 118.607 14.1615 118.34 13.5419C118.03 12.6814 117.893 11.7779 117.936 10.8741V7.51253C117.898 6.74211 118.011 5.97163 118.27 5.23665C118.568 4.65116 119.073 4.17102 119.706 3.87134C120.517 3.45256 121.441 3.24462 122.376 3.27065C123.309 3.24735 124.232 3.45182 125.046 3.86237C125.72 4.19037 126.243 4.72256 126.523 5.36462C126.799 6.20622 126.922 7.08244 126.887 7.95937L126.888 7.95824ZM136 3.49745V5.97429H133.714V15.3147H129.723V5.97429H127.427V3.49745H136Z" fill="url(#paint1_linear_1_41)"/>
<defs>
<linearGradient id="paint0_linear_1_41" x1="33" y1="23.006" x2="102" y2="23.006" gradientUnits="userSpaceOnUse">
<stop stop-color="#183C6E"/>
<stop offset="0.503" stop-color="#004B96"/>
<stop offset="1" stop-color="#163D6E"/>
</linearGradient>
<linearGradient id="paint1_linear_1_41" x1="0" y1="8.5" x2="136" y2="8.5" gradientUnits="userSpaceOnUse">
<stop stop-color="#183C6E"/>
<stop offset="0.503" stop-color="#004B96"/>
<stop offset="1" stop-color="#163D6E"/>
</linearGradient>
</defs>
</svg>
